<?xml version="1.0" encoding="utf-8"?>
<!-- Generator: Adobe Illustrator 18.1.1, SVG Export Plug-In . SVG Version: 6.00 Build 0)  -->
<!DOCTYPE svg PUBLIC "-//W3C//DTD SVG 1.1//EN" "http://www.w3.org/Graphics/SVG/1.1/DTD/svg11.dtd">
<svg version="1.1" id="Layer_1" xmlns="http://www.w3.org/2000/svg" xmlns:xlink="http://www.w3.org/1999/xlink" x="0px" y="0px"
	 viewBox="0 0 210 98" style="enable-background:new 0 0 210 98;" xml:space="preserve">
<g>
	<path style="fill:#FFFFFF;" d="M209.2,9.7c0,0-0.4-2.6-3.5-3.2c0,0-2-0.4-4.3,2.6c0,0-0.7,1.3-1.7-0.4c0,0-3.9-8.2-15.6-8.3
		c0,0,3.4,3,3.9,7.5c0,0,0.6,6.2,5.3,7.8c0,0-2.9,1.7-6.5,1.5c0,0,4.5,5,14.2,1.8c0,0,3.7-1.5,4.7-6.6
		C205.7,12.4,206.4,8.8,209.2,9.7z"/>
	<g>
		<path style="fill:#FFFFFF;" d="M34.9,63.5c4.4,4.1,5.5,9,5.5,13.4c0,12.2-7.9,20.6-20.6,20.6c-5.4,0-14.3-1.5-18.6-6
			c-0.8-3.4-0.4-10.4,1.3-15.3h1c-1.1,11.3,6.1,18.6,15.9,18c8-0.4,14.7-6,14.7-14.7c0-4.3-1.6-7.7-4.3-10.3L8.6,49.7
			c-4.4-4.1-6-9.4-6-13.6c0-9.3,6.8-18.6,19.3-18.6c2.9,0,6.5,0.5,9.4,1.1h4.4v1.3v12.2h-1.1c0-7-5.5-11.3-12.4-11.3
			c-8.1,0-13.5,5.9-13.5,12.7c0,2.9,1,6.9,4.4,10.1L34.9,63.5z"/>
		<path style="fill:#FFFFFF;" d="M96.5,62.3c-2.6,0-3.8,1.6-3.3,4.1c1.4,7.4,0.4,14.3-2.6,19.6c4.8,4.2,10.1,8.7,15.8,9.1V96
			c-3.5,0-11.8,0.7-19.4-5.3c-4,3.9-9.6,6.2-16.6,6.2c-17.6,0-27.6-7.7-27.6-21.1c0-8.2,4.6-13.5,10.9-16.6c-2.2-3.6-3.4-7.4-3.4-12
			c0-8.8,7-15.5,18.1-15.5c6,0.1,12.1,2.5,15.3,6.4L82,48.3h-0.9c0-8.6-5.1-13.9-12.8-13.9c-6.9,0-11.9,5.4-11.9,12.8
			c0,7.5,5,13.3,14.3,21.6c3.8,3.4,8.7,8,16.3,14.3c2.4-5.4,2.5-11.7,0-16.7c-1.2-2.4-3-4.1-5.8-4.1h-1.4v-0.9h18v0.9L96.5,62.3z
			 M70.3,94.2c5.8,0,10.4-2.4,13.5-6.1c-7.5-6.2-12.5-10.6-17.3-14.9c-4.8-4.4-8.7-8.1-11.5-11.9c-4.2,3.8-5.8,9-5.8,14.5
			C49.3,86.6,56.8,94.2,70.3,94.2L70.3,94.2z"/>
		<path style="fill-rule:evenodd;clip-rule:evenodd;fill:#FFFFFF;" d="M179,30.7l3.1-3.8l2.2,4.8l1.4-13.4l-12.6,3.7l5.2,1.7
			l-4.4,5.2l-0.1,0l0,0l-0.1,0.1c-6.9-6.5-16.6-10.1-28.1-10.1l-37.2,0.1l0,1.2h1.4c3.6,0,6.2,2.5,6.2,6.1V88c0,3.8-2.4,7.3-6.3,7.3
			h-1.4l0,1h14.7v-7.5v-9.4V23.4h22.6c10.3,0,18,3.7,23.5,11l-38.7,47c-25.1,29.5,80.3,17.2,46.6-48.5
			C177.6,32.5,178.3,31.6,179,30.7z M172.6,38.6c20.3,48-50.1,63.3-37.4,46.1L172.6,38.6z"/>
	</g>
</g>
</svg>
